<svg enable-background="new 0 0 1024 1024" viewBox="0 0 1024 1024" xmlns="http://www.w3.org/2000/svg" xmlns:xlink="http://www.w3.org/1999/xlink"><defs><clipPath id="a"><path d="m230.1 230.1h563.9v563.9h-563.9z"/></clipPath><clipPath id="b" clip-path="url(#a)"><use xlink:href="#e"/></clipPath><clipPath id="c"><path d="m230.1 230.1h563.9v563.9h-563.9z"/></clipPath><clipPath id="d" clip-path="url(#c)"><path d="m548.6 572.9c1.7 9.2 10.3 15.6 19.7 15.6h29.5l17.1-2.4c-27.4 40.2-74.9 58.7-126.9 50.5-42.3-6.6-78.6-35.3-94-75.3-34.8-90.8 31.5-177.5 117.8-177.5 45 0 84.5 26.4 107.1 58.2 6.5 9.2 17.9 11.8 26.6 5.8 8.2-5.7 10.6-16.6 5.7-25.1-31.3-48.9-87.6-80.2-150.8-76-82.4 5.5-149 73-153.7 155.5-5.5 96 70.6 174.4 165.2 174.4 49.7 0 94.2-21.7 124.5-56.7l-3.6 20.1v18.2c0 9.4 6.3 18.1 15.5 19.7 12.1 2.2 22.6-7.1 22.6-18.8v-108.9h-103.5c-11.7 0-21 10.6-18.8 22.7z"/></clipPath><path id="e" d="m797.1 512c0 157.4-127.6 285.1-285.1 285.1-157.4 0-285.1-127.6-285.1-285.1 0-157.4 127.6-285.1 285.1-285.1 157.4 0 285.1 127.7 285.1 285.1"/></defs><circle cx="512" cy="512" fill="#03c197" r="512"/><path clip-path="url(#b)" d="m212.4 212.4h599.1v599.1h-599.1z" fill="#03c197"/><use clip-rule="evenodd" fill="none" stroke="#fff" stroke-miterlimit="10" stroke-width="10" xlink:href="#e"/><path clip-path="url(#d)" d="m328.9 328.7h359.8v367.1h-359.8z" fill="#fff"/></svg>